<svg xmlns="http://www.w3.org/2000/svg" viewBox="0 0 240 180"><defs><linearGradient id="p" x1="0" x2="1"><stop stop-color="#c897ff"/><stop offset="1" stop-color="#6840c6"/></linearGradient><filter id="gl"><feGaussianBlur stdDeviation="5" result="b"/><feMerge><feMergeNode in="b"/><feMergeNode in="SourceGraphic"/></feMerge></filter></defs><g filter="url(#gl)" fill="none" stroke-linecap="round"><circle cx="82" cy="61" r="24" fill="url(#p)" opacity=".65" stroke="#f4d085" stroke-width="2"/><circle cx="158" cy="61" r="24" fill="url(#p)" opacity=".65" stroke="#f4d085" stroke-width="2"/><path d="M53 145c6-38 17-58 29-58s23 20 29 58M129 145c6-38 17-58 29-58s23 20 29 58" fill="#4c277e" opacity=".65" stroke="#a978ff" stroke-width="3"/><path d="M104 88c10-10 22-10 32 0" stroke="#f2c46f" stroke-width="3"/><path d="M120 92c-12 10-17 18-17 26 0 10 8 16 17 23 9-7 17-13 17-23 0-8-5-16-17-26Z" fill="#d7a9ff" opacity=".75" stroke="#f6d08c" stroke-width="2"/></g></svg>