<svg xmlns="http://www.w3.org/2000/svg" viewBox="0 0 240 180"><defs><linearGradient id="l" x1="0" y1="0" x2="0" y2="1"><stop stop-color="#f7e8ff"/><stop offset=".45" stop-color="#ba82ff"/><stop offset="1" stop-color="#5b2daa"/></linearGradient><filter id="gl"><feGaussianBlur stdDeviation="5" result="b"/><feMerge><feMergeNode in="b"/><feMergeNode in="SourceGraphic"/></feMerge></filter></defs><g filter="url(#gl)" stroke="#f2c46f" stroke-width="2"><path d="M120 144C88 124 72 101 72 77c28 5 42 19 48 42 6-23 20-37 48-42 0 24-16 47-48 67Z" fill="url(#l)"/><path d="M120 135C95 105 94 78 120 43c26 35 25 62 0 92Z" fill="#d9b0ff"/><path d="M112 135C86 121 65 105 51 84c27-2 49 10 61 36m16 15c26-14 47-30 61-51-27-2-49 10-61 36" fill="#7a48cc"/><circle cx="120" cy="38" r="4" fill="#fff2bc"/></g></svg>